HIERARCHY
ROOT Hips
{
    OFFSET 0.000000 0.000000 0.000000
    CHANNELS 6 Xposition Yposition Zposition Zrotation Xrotation Yrotation
    JOINT Spine
    {
        OFFSET -0.000000 14.517291 0.000000
        CHANNELS 3 Zrotation Xrotation Yrotation
        JOINT Spine1
        {
            OFFSET -0.000000 37.558300 0.000000
            CHANNELS 3 Zrotation Xrotation Yrotation
            JOINT Neck
            {
                OFFSET -0.000000 37.404057 3.400369
                CHANNELS 3 Zrotation Xrotation Yrotation
                JOINT Head
                {
                    OFFSET -0.000000 24.785618 -3.540803
                    CHANNELS 3 Zrotation Xrotation Yrotation
                    End Site
                    {
                        OFFSET -0.000000 35.408028 0.000000
                    }
                }
            }
            JOINT LeftShoulder
            {
                OFFSET 6.992933 33.973492 -0.192664
                CHANNELS 3 Zrotation Xrotation Yrotation
                JOINT LeftArm
                {
                    OFFSET 21.527611 0.000000 0.000000
                    CHANNELS 3 Zrotation Xrotation Yrotation
                    JOINT LeftForeArm
                    {
                        OFFSET 56.353916 0.000000 0.000000
                        CHANNELS 3 Zrotation Xrotation Yrotation
                        JOINT LeftHand
                        {
                            OFFSET 47.774071 0.000000 0.000000
                            CHANNELS 3 Zrotation Xrotation Yrotation
                            End Site
                            {
                                OFFSET 26.556021 0.000000 0.000000
                            }
                        }
                    }
                }
            }
            JOINT RightShoulder
            {
                OFFSET -7.065357 33.973492 -0.192664
                CHANNELS 3 Zrotation Xrotation Yrotation
                JOINT RightArm
                {
                    OFFSET -21.527611 0.000000 0.000000
                    CHANNELS 3 Zrotation Xrotation Yrotation
                    JOINT RightForeArm
                    {
                        OFFSET -56.353916 0.000000 0.000000
                        CHANNELS 3 Zrotation Xrotation Yrotation
                        JOINT RightHand
                        {
                            OFFSET -47.774071 0.000000 0.000000
                            CHANNELS 3 Zrotation Xrotation Yrotation
                            End Site
                            {
                                OFFSET -26.556021 0.000000 0.000000
                            }
                        }
                    }
                }
            }
        }
    }
    JOINT LeftUpLeg
    {
        OFFSET 17.704014 0.000000 0.000000
        CHANNELS 3 Zrotation Xrotation Yrotation
        JOINT LeftLeg
        {
            OFFSET -0.000000 -81.181816 0.000000
            CHANNELS 3 Zrotation Xrotation Yrotation
            JOINT LeftFoot
            {
                OFFSET -0.000000 -62.821102 0.000000
                CHANNELS 3 Zrotation Xrotation Yrotation
                JOINT LeftToeBase
                {
                    OFFSET -0.000000 -11.507608 26.556021
                    CHANNELS 3 Zrotation Xrotation Yrotation
                    End Site
                    {
                        OFFSET -0.000000 0.000000 7.081605
                    }
                }
            }
        }
    }
    JOINT RightUpLeg
    {
        OFFSET -17.704014 0.000000 0.000000
        CHANNELS 3 Zrotation Xrotation Yrotation
        JOINT RightLeg
        {
            OFFSET -0.000000 -81.181816 0.000000
            CHANNELS 3 Zrotation Xrotation Yrotation
            JOINT RightFoot
            {
                OFFSET -0.000000 -62.821102 0.000000
                CHANNELS 3 Zrotation Xrotation Yrotation
                JOINT RightToeBase
                {
                    OFFSET -0.000000 -11.507608 26.556021
                    CHANNELS 3 Zrotation Xrotation Yrotation
                    End Site
                    {
                        OFFSET -0.000000 0.000000 7.081605
                    }
                }
            }
        }
    }
}
MOTION
Frames:    10
Frame Time:    0.008333
39.174110    154.818451    -99.025925    -2.550546    -2.280831    27.383139    0.107194    -0.180118    -2.284684    -9.581281    0.111833    -0.749098    15.525607    3.828919    2.320770    4.844690    -2.067554    1.405696    15.901729    -4.973861    -16.503119    -19.669062    -33.867527    -34.058670    -14.505792    -43.939178    -94.604889    -34.314571    -45.616463    -41.719574    -14.311158    -0.172650    -6.486316    23.152750    20.117929    11.919968    11.121257    12.344207    2.537266    10.573170    13.332309    13.558882    2.210595    -10.537836    0.357872    -15.370760    40.907940    -16.175446    19.389845    -22.374495    44.537033    0.000000    0.000000    0.000000    0.101331    -36.303936    -15.048126    12.015972    18.738760    -15.763056    22.032442    27.483858    -17.664183    0.000000    0.000000    0.000000    
39.016991    154.984451    -99.208954    -2.628438    -2.325176    27.322861    0.223168    -0.167119    -2.286685    -9.660378    0.078119    -0.752678    15.569363    3.837100    2.316149    4.809597    -2.012363    1.389007    15.911236    -4.980922    -16.472073    -19.575193    -33.697727    -33.972275    -14.527640    -44.026371    -94.603775    -34.339012    -45.703140    -41.749702    -14.275155    -0.123388    -6.503985    23.146908    20.028236    11.930306    11.142019    12.452760    2.508997    10.590438    13.442370    13.533572    2.273922    -10.522008    0.356145    -15.193980    40.665779    -16.281601    19.239939    -22.193443    44.507282    0.000000    0.000000    0.000000    -0.341478    -36.307236    -15.067340    12.113770    19.060753    -15.713579    23.741165    26.787857    -18.259922    0.000000    0.000000    0.000000    
38.861843    155.147888    -99.407417    -2.710552    -2.353822    27.279953    0.304485    -0.155873    -2.282753    -9.653872    0.033541    -0.755225    15.496593    3.851077    2.302742    4.876005    -1.986993    1.395208    15.877116    -4.970353    -16.472775    -19.543484    -33.694340    -33.924809    -14.569704    -43.941746    -94.551437    -34.297199    -45.654282    -41.757366    -14.319458    -0.118399    -6.562387    23.152443    20.081573    11.940502    11.124175    12.377590    2.502436    10.534307    13.359520    13.506537    2.317008    -10.526719    0.264138    -15.010894    40.290504    -16.350302    19.029022    -21.960169    44.468395    0.000000    0.000000    0.000000    -0.829678    -36.316414    -15.061857    12.320493    19.389971    -15.693851    24.211649    26.096952    -17.852985    0.000000    0.000000    0.000000    
38.702267    155.312622    -99.583839    -2.798500    -2.389404    27.223753    0.339985    -0.179012    -2.247772    -9.583692    0.047967    -0.742451    15.483008    3.860432    2.284813    4.872434    -1.986111    1.378779    15.867702    -4.922346    -16.511419    -19.536066    -33.691628    -33.911083    -14.525075    -43.962692    -94.496414    -34.252247    -45.651241    -41.721146    -14.341241    -0.159866    -6.563773    23.155722    20.110134    11.824191    11.072479    12.185693    2.619493    10.729804    13.174592    13.435635    2.391170    -10.521898    0.198619    -14.888940    40.039902    -16.414787    18.889139    -21.777004    44.470665    0.000000    0.000000    0.000000    -1.284618    -36.322441    -15.043961    12.541324    19.778591    -15.528492    23.084848    25.615227    -16.322512    0.000000    0.000000    0.000000    
38.556915    155.475510    -99.752121    -2.868488    -2.439800    27.183250    0.421626    -0.172258    -2.248990    -9.610701    0.055562    -0.742231    15.548896    3.846257    2.286212    4.810079    -1.968342    1.359831    15.890030    -4.943097    -16.479460    -19.511671    -33.599747    -33.873699    -14.456612    -43.991543    -94.440720    -34.267921    -45.615608    -41.698666    -14.315243    -0.168575    -6.597746    23.151999    20.150063    11.798614    11.044128    12.334434    2.531380    10.554288    13.313518    13.458827    2.455438    -10.493998    0.088672    -14.810527    39.778408    -16.402910    18.755671    -21.592812    44.449974    0.000000    0.000000    0.000000    -1.789831    -36.290703    -15.068044    12.786690    20.211014    -15.284188    21.442543    24.891653    -14.919298    0.000000    0.000000    0.000000    
38.405933    155.639847    -99.912682    -2.949818    -2.498423    27.148218    0.543116    -0.144676    -2.256321    -9.675038    0.015921    -0.748055    15.577127    3.823171    2.297299    4.820716    -1.903470    1.363835    15.906380    -4.923818    -16.469198    -19.436140    -33.507984    -33.802597    -14.473445    -44.041351    -94.468033    -34.262806    -45.676823    -41.728394    -14.274275    -0.200131    -6.592958    23.139374    20.050501    11.728363    11.078826    12.163325    2.593794    10.708733    13.145888    13.367893    2.529495    -10.423987    -0.034853    -14.797106    39.525253    -16.241899    18.734886    -21.380180    44.309891    0.000000    0.000000    0.000000    -2.281634    -36.262016    -15.061378    13.007704    20.692612    -15.016868    19.569397    24.067577    -13.744476    0.000000    0.000000    0.000000    
38.251423    155.801941    -100.071739    -3.043105    -2.558959    27.095182    0.667406    -0.124815    -2.237019    -9.746485    0.001492    -0.742836    15.657151    3.830756    2.297489    4.789237    -1.923685    1.351577    15.984668    -4.906582    -16.471317    -19.499022    -33.630520    -33.794518    -14.608500    -43.845688    -94.522354    -34.166218    -45.649914    -41.656525    -14.193831    -0.216659    -6.592035    23.112383    20.089560    11.649378    11.046330    12.121962    2.619679    10.684412    13.099165    13.357061    2.613314    -10.404496    -0.096207    -14.644596    39.159534    -16.311817    18.569189    -21.110655    44.387074    0.000000    0.000000    0.000000    -2.747776    -36.247101    -15.083491    13.200143    21.224653    -14.767341    18.274101    23.153599    -13.375954    0.000000    0.000000    0.000000    
38.107433    155.966202    -100.222458    -3.121077    -2.616876    27.043423    0.735303    -0.066058    -2.217459    -9.695173    -0.069516    -0.742287    15.612800    3.888874    2.267952    4.808187    -2.001760    1.340517    15.955703    -4.880351    -16.482641    -19.470081    -33.649788    -33.730354    -14.661835    -43.765030    -94.552376    -34.163601    -45.620724    -41.655117    -14.231594    -0.145853    -6.653367    23.097858    20.002792    11.678367    11.089707    12.212897    2.569856    10.649958    13.181894    13.274054    2.681820    -10.363029    -0.204588    -14.545228    38.901997    -16.330185    18.427305    -20.931452    44.396572    0.000000    0.000000    0.000000    -3.226361    -36.230949    -15.005763    13.377634    21.739145    -14.623433    17.453016    22.237062    -13.865595    0.000000    0.000000    0.000000    
37.960052    156.127975    -100.346458    -3.199810    -2.700976    27.000401    0.775213    -0.078055    -2.206933    -9.620694    -0.016627    -0.734344    15.698775    3.934868    2.277376    4.682891    -2.061756    1.329213    15.969863    -4.889417    -16.501209    -19.451429    -33.598919    -33.660889    -14.605780    -43.789665    -94.541901    -34.193592    -45.594067    -41.637379    -14.239170    -0.192138    -6.636861    23.103735    20.055666    11.604581    11.029533    12.129316    2.545738    10.672410    13.117503    13.411738    2.765611    -10.293165    -0.350468    -14.461605    38.643784    -16.328323    18.297632    -20.765715    44.423882    0.000000    0.000000    0.000000    -3.684804    -36.167912    -14.904957    13.485600    22.242023    -14.486670    17.083757    21.300585    -14.689371    0.000000    0.000000    0.000000    
37.809330    156.294373    -100.478149    -3.285279    -2.775612    26.932417    0.861332    -0.026392    -2.188809    -9.606312    -0.061828    -0.732035    15.754302    3.887440    2.280593    4.626835    -1.985660    1.307277    16.009216    -4.862596    -16.467804    -19.450130    -33.570786    -33.625355    -14.614417    -43.777786    -94.578873    -34.238571    -45.578049    -41.658607    -14.211473    -0.189188    -6.632504    23.087160    20.096716    11.546632    11.005972    12.252549    2.517314    10.588782    13.225218    13.318252    2.858293    -10.239934    -0.455192    -14.376052    38.397835    -16.345598    18.156933    -20.593061    44.451427    0.000000    0.000000    0.000000    -4.115578    -36.134773    -14.720316    13.557508    22.757196    -14.466657    16.856192    20.443214    -15.776173    0.000000    0.000000    0.000000    
